{"accessors" : [{"bufferView" : 0, "byteOffset" : 0, "componentType" : 5123, "count" : 132, "type" : "SCALAR", "max" : [23], "min" : [0]}, {"bufferView" : 1, "byteOffset" : 0, "componentType" : 5126, "count" : 24, "type" : "VEC3", "max" : [68000, 10000, 0], "min" : [0, 0, -72000], "name" : "POSITION"}], "asset" : {"generator" : "Aspose.3D 25.3.0", "version" : "2.0"}, "buffers" : [{"uri" : "data:application/octet-stream;base64,", "byteLength" : 560}], "bufferViews" : [{"buffer" : 0, "byteOffset" : 0, "byteLength" : 264, "target" : 34963}, {"buffer" : 0, "byteOffset" : 268, "byteLength" : 288, "byteStride" : 12, "target" : 34962}], "meshes" : [{"primitives" : [{"attributes" : {"POSITION" : 1}, "indices" : 0, "mode" : 4}], "name" : ""}], "nodes" : [{"mesh" : 0, "name" : "body143750"}, {"children" : [0], "name" : "a"}], "scene" : 0, "scenes" : [{"nodes" : [1]}]}