{"accessors" : [{"bufferView" : 0, "byteOffset" : 0, "componentType" : 5123, "count" : 5028, "type" : "SCALAR", "max" : [839], "min" : [0]}, {"bufferView" : 1, "byteOffset" : 0, "componentType" : 5126, "count" : 840, "type" : "VEC3", "max" : [34, 10, 36], "min" : [-34, 0, -36], "name" : "POSITION"}], "asset" : {"generator" : "Aspose.3D 25.3.0", "version" : "2.0"}, "buffers" : [{"uri" : "data:application/octet-stream;base64,", "byteLength" : 20144}], "bufferViews" : [{"buffer" : 0, "byteOffset" : 0, "byteLength" : 10056, "target" : 34963}, {"buffer" : 0, "byteOffset" : 10060, "byteLength" : 10080, "byteStride" : 12, "target" : 34962}], "meshes" : [{"primitives" : [{"attributes" : {"POSITION" : 1}, "indices" : 0, "mode" : 4}], "name" : ""}], "nodes" : [{"mesh" : 0, "name" : "body9263177"}, {"children" : [0], "name" : "车间"}], "scene" : 0, "scenes" : [{"nodes" : [1]}]}