{"accessors" : [{"bufferView" : 0, "byteOffset" : 0, "componentType" : 5123, "count" : 6174, "type" : "SCALAR", "max" : [1028], "min" : [0]}, {"bufferView" : 1, "byteOffset" : 0, "componentType" : 5126, "count" : 1029, "type" : "VEC3", "max" : [49.983421325683594, 17, 50], "min" : [-49.983421325683594, 0, -50], "name" : "POSITION"}, {"bufferView" : 0, "byteOffset" : 12348, "componentType" : 5123, "count" : 13344, "type" : "SCALAR", "max" : [2223], "min" : [0]}, {"bufferView" : 2, "byteOffset" : 0, "componentType" : 5126, "count" : 2224, "type" : "VEC3", "max" : [49.983421325683594, 15, 50], "min" : [-49.983421325683594, 0, -50], "name" : "POSITION"}, {"bufferView" : 0, "byteOffset" : 39036, "componentType" : 5123, "count" : 6174, "type" : "SCALAR", "max" : [1028], "min" : [0]}, {"bufferView" : 3, "byteOffset" : 0, "componentType" : 5126, "count" : 1029, "type" : "VEC3", "max" : [49.983421325683594, 17, 50], "min" : [-49.983421325683594, 0, -50], "name" : "POSITION"}, {"bufferView" : 0, "byteOffset" : 51384, "componentType" : 5123, "count" : 13344, "type" : "SCALAR", "max" : [2223], "min" : [0]}, {"bufferView" : 4, "byteOffset" : 0, "componentType" : 5126, "count" : 2224, "type" : "VEC3", "max" : [49.983421325683594, 15, 50], "min" : [-49.983421325683594, 0, -50], "name" : "POSITION"}], "asset" : {"generator" : "Aspose.3D 25.3.0", "version" : "2.0"}, "buffers" : [{"uri" : "data:application/octet-stream;base64,", "byteLength" : 156164}], "bufferViews" : [{"buffer" : 0, "byteOffset" : 0, "byteLength" : 78072, "target" : 34963}, {"buffer" : 0, "byteOffset" : 78076, "byteLength" : 12348, "byteStride" : 12, "target" : 34962}, {"buffer" : 0, "byteOffset" : 90428, "byteLength" : 26688, "byteStride" : 12, "target" : 34962}, {"buffer" : 0, "byteOffset" : 117120, "byteLength" : 12348, "byteStride" : 12, "target" : 34962}, {"buffer" : 0, "byteOffset" : 129472, "byteLength" : 26688, "byteStride" : 12, "target" : 34962}], "meshes" : [{"primitives" : [{"attributes" : {"POSITION" : 1}, "indices" : 0, "mode" : 4}], "name" : ""}, {"primitives" : [{"attributes" : {"POSITION" : 3}, "indices" : 2, "mode" : 4}], "name" : ""}, {"primitives" : [{"attributes" : {"POSITION" : 5}, "indices" : 4, "mode" : 4}], "name" : ""}, {"primitives" : [{"attributes" : {"POSITION" : 7}, "indices" : 6, "mode" : 4}], "name" : ""}], "nodes" : [{"mesh" : 0, "name" : "body379"}, {"children" : [0], "name" : "() 1"}, {"mesh" : 1, "name" : "body795"}, {"children" : [2], "name" : "() 1"}, {"mesh" : 2, "name" : "body379"}, {"children" : [4], "name" : "() 1"}, {"mesh" : 3, "name" : "body795"}, {"children" : [6], "matrix" : [0.926315, 0, 0.376749, 0, 0, 1, 0, 0, -0.376749, 0, 0.926315, 0, -0, -31.055174, -0, 1], "name" : "() 1"}, {"children" : [5, 7], "name" : "1"}], "scene" : 0, "scenes" : [{"nodes" : [1, 3, 8]}]}